<?xml version="1.0" encoding="utf-8"?>
<!-- Generator: Adobe Illustrator 23.0.6, SVG Export Plug-In . SVG Version: 6.00 Build 0)  -->
<svg version="1.1" id="图层_1" xmlns="http://www.w3.org/2000/svg" xmlns:xlink="http://www.w3.org/1999/xlink" x="0px" y="0px"
	 viewBox="0 0 201.8 200" style="enable-background:new 0 0 201.8 200;" xml:space="preserve">
<style type="text/css">
	.st0{opacity:0.3;fill:#C4C9F1;enable-background:new    ;}
	.st1{opacity:0.5;fill:#95A1FD;enable-background:new    ;}
	.st2{font-family:'MicrosoftYaHeiLight';}
	.st3{font-size:20px;}
	.st4{letter-spacing:3;}
</style>
<path class="st0" d="M155,61.1L155,61.1c0-24.6-19.7-44.3-43.6-44.3c-16.9,0-31.6,9.8-38.7,23.9c-4.2-1.4-7.7-2.1-11.3-2.1
	c-15.5,0-27.4,12.7-27.4,27.4c0,2.8,0.7,4.9,1.4,7C22.1,78,12.3,90,12.3,104.7c0,18.3,14.8,33.1,33.1,33.1h33.1v-33.1H56.6
	l44.3-44.3l44.3,44.3h-21.8v33.1h33.1v-0.7c18.3-2.8,33.1-19,33.1-38C188.1,79.4,173.3,63.3,155,61.1z"/>
<text transform="matrix(1 0 0 1 32.3789 171.5)" class="st1 st2 st3 st4">拖拽上传附件</text>
</svg>
