<?xml version="1.0" encoding="UTF-8"?>
<!DOCTYPE svg PUBLIC "-//W3C//DTD SVG 1.1//EN" "http://www.w3.org/Graphics/SVG/1.1/DTD/svg11.dtd">
<!-- Creator: CorelDRAW X7 -->
<svg xmlns="http://www.w3.org/2000/svg" xml:space="preserve" width="1.6932mm" height="1.6932mm" version="1.1" style="shape-rendering:geometricPrecision; text-rendering:geometricPrecision; image-rendering:optimizeQuality; fill-rule:evenodd; clip-rule:evenodd"
viewBox="0 0 169 169"
 xmlns:xlink="http://www.w3.org/1999/xlink">
 <defs>
  <style type="text/css">
   <![CDATA[
    .str0 {stroke:#4B91FF;stroke-width:7.62}
    .fil1 {fill:none}
    .fil2 {fill:#4B91FF}
    .fil0 {fill:#BCD4F8}
   ]]>
  </style>
 </defs>
 <g id="图层_x0020_1">
  <metadata id="CorelCorpID_0Corel-Layer"/>
  <path class="fil0" d="M85 77c47,1 65,29 65,52 0,22 -32,30 -65,30 -16,0 -46,0 -61,-15 -10,-9 -5,-19 0,-29 9,-19 30,-38 61,-38z"/>
  <g id="_1314739811104">
   <circle class="fil1 str0" cx="85" cy="40" r="34"/>
   <path class="fil1 str0" d="M13 143c1,-38 33,-68 72,-68 38,0 70,29 72,66 0,1 0,2 0,2"/>
  </g>
  <polygon class="fil2" points="83,92 89,92 88,97 95,138 87,146 78,139 84,98 "/>
 </g>
</svg>
