<?xml version="1.0" encoding="utf-8"?>
<!-- Generator: Adobe Illustrator 16.0.0, SVG Export Plug-In . SVG Version: 6.00 Build 0)  -->
<!DOCTYPE svg PUBLIC "-//W3C//DTD SVG 1.1//EN" "http://www.w3.org/Graphics/SVG/1.1/DTD/svg11.dtd">
<svg version="1.1" id="图层_1" xmlns="http://www.w3.org/2000/svg" xmlns:xlink="http://www.w3.org/1999/xlink" x="0px" y="0px"
	 width="595.276px" height="595.276px" viewBox="0 0 595.276 595.276" enable-background="new 0 0 595.276 595.276"
	 xml:space="preserve">
<g>
	<defs>
		<rect id="SVGID_1_" width="595.276" height="595.276"/>
	</defs>
	<clipPath id="SVGID_2_">
		<use xlink:href="#SVGID_1_"  overflow="visible"/>
	</clipPath>
	<path clip-path="url(#SVGID_2_)" fill="#3A66B0" d="M521.321,126.666l-0.335,78.091c12.684,29.99,19.116,61.869,19.116,94.755
		c0,32.885-6.433,64.765-19.116,94.755c-12.261,28.986-29.821,55.027-52.193,77.399c-22.371,22.373-48.414,39.934-77.4,52.193
		c-29.989,12.685-61.869,19.117-94.755,19.117c-32.885,0-64.765-6.433-94.755-19.117c-28.986-12.26-55.028-29.82-77.4-52.193
		c-22.372-22.372-39.932-48.413-52.193-77.399c-12.685-29.99-19.116-61.87-19.116-94.755c0-32.886,6.431-64.766,19.116-94.755
		c0.067-26.26,0.134-52.521,0.2-78.781c-37.18,47.955-59.316,108.159-59.316,173.537c0,156.553,126.911,283.465,283.464,283.465
		c156.553,0,283.465-126.912,283.465-283.465C580.103,234.449,558.18,174.507,521.321,126.666"/>
	<path clip-path="url(#SVGID_2_)" fill="#3A66B0" d="M416.879,341.807c0-8.909-44.471-16.286-102.475-17.573
		c0.003-1.091,0.005-2.183,0.005-3.28c0-11.362-0.126-22.456-0.364-33.167c46.013-1.505,80.904-8.76,80.904-17.484
		c0-8.803-35.523-16.11-82.149-17.523c-2.808-56.391-8.987-95.562-16.162-95.562c-7.173,0-13.353,39.161-16.16,95.542
		c-46.95,1.365-82.808,8.699-82.808,17.543c0,8.765,35.225,16.048,81.561,17.505c-0.239,10.705-0.365,21.79-0.365,33.146
		c0,1.092,0.003,2.181,0.005,3.268c-58.323,1.246-103.129,8.644-103.129,17.586c0,8.967,45.057,16.381,103.618,17.596
		c1.878,71.876,8.901,125.287,17.278,125.287c8.378,0,15.401-53.418,17.278-125.3C372.157,358.133,416.879,350.74,416.879,341.807"
		/>
	<path clip-path="url(#SVGID_2_)" fill="#3A66B0" d="M331.604,126.92c-6.762,12.562-20.029,21.104-35.294,21.104
		c-15.266,0-28.534-8.542-35.294-21.104c-89.642,16.583-157.541,95.153-157.541,189.596c0,85.875,56.134,158.637,133.711,183.6
		l-30.459-52.756c-8.02-5.505-15.551-11.755-22.528-18.731c-14.573-14.572-26.009-31.532-33.993-50.408
		c-8.258-19.524-12.445-40.284-12.445-61.704c0-21.419,4.187-42.179,12.445-61.704c7.984-18.875,19.42-35.835,33.993-50.407
		c14.571-14.572,31.531-26.009,50.407-33.993c19.524-8.258,40.285-12.445,61.704-12.445c21.419,0,42.179,4.187,61.704,12.445
		c18.877,7.984,35.836,19.421,50.407,33.993c14.572,14.572,26.009,31.532,33.993,50.407c8.258,19.525,12.445,40.285,12.445,61.704
		c0,21.42-4.188,42.18-12.445,61.704c-7.984,18.876-19.421,35.836-33.993,50.408c-6.58,6.581-13.651,12.515-21.164,17.788
		l-30.814,53.372c77.054-25.267,132.703-97.77,132.703-183.272C489.146,222.073,421.246,143.503,331.604,126.92"/>
	<path clip-path="url(#SVGID_2_)" fill="#3A66B0" d="M479.013,82.515c-5.689-4.789-11.245-9.083-16.563-12.924
		c-0.014-0.005-0.027-0.01-0.041-0.015c-46.624-33.678-103.894-53.529-165.803-53.529c-62.148,0-119.623,20.003-166.344,53.918
		h0.019c-5.221,3.782-10.665,7.994-16.241,12.687c-5.194,4.371-9.959,8.699-14.313,12.9c0.014-0.01,0.027-0.019,0.04-0.03
		c-0.011,0.009-0.028,0.022-0.04,0.03c17.877-3.544,43.434-6.927,73.933-5.32c12.627-7.872,26.456-14.79,41.577-20.267
		c9.097-3.229,18.354-5.889,27.741-7.999c-0.004,0.034-0.009,0.07-0.013,0.104c17.421-3.905,35.296-5.886,53.482-5.886
		c27.978,0,55.227,4.661,81.204,13.861c-19.272,4.458-35.021,12.571-47.405,21.276c-6.155-12.526-19.036-21.15-33.935-21.15
		c-20.874,0-37.796,16.922-37.796,37.795c0,20.874,16.922,37.796,37.796,37.796c20.873,0,37.795-16.922,37.795-37.796
		c0-0.167-0.01-0.331-0.013-0.498c13.252-4.822,28.226-9.213,44.839-12.426c48.362-9.356,89.075-4.647,114.394,0.373
		C491.836,94.293,484.205,86.886,479.013,82.515"/>
</g>
</svg>
