<?xml version="1.0" encoding="UTF-8"?>
<!DOCTYPE svg PUBLIC "-//W3C//DTD SVG 1.1//EN" "http://www.w3.org/Graphics/SVG/1.1/DTD/svg11.dtd">
<!-- Creator: CorelDRAW X7 -->
<svg xmlns="http://www.w3.org/2000/svg" xml:space="preserve" width="1.6932mm" height="1.6932mm" version="1.1" style="shape-rendering:geometricPrecision; text-rendering:geometricPrecision; image-rendering:optimizeQuality; fill-rule:evenodd; clip-rule:evenodd"
viewBox="0 0 169 169"
 xmlns:xlink="http://www.w3.org/1999/xlink">
 <defs>
  <style type="text/css">
   <![CDATA[
    .str0 {stroke:#4B91FF;stroke-width:7.62}
    .fil0 {fill:none}
    .fil2 {fill:#4B91FF}
    .fil1 {fill:#BCD4F8}
   ]]>
  </style>
 </defs>
 <g id="图层_x0020_1">
  <metadata id="CorelCorpID_0Corel-Layer"/>
  <path class="fil0 str0" d="M84 152l-49 0c-4,0 -7,-3 -7,-7l0 -128c0,-4 3,-7 7,-7l95 0c3,0 7,3 7,7l0 67"/>
  <rect class="fil1" x="35" y="52" width="93.8965" height="94.0087" rx="4" ry="9"/>
  <rect class="fil2" x="46" y="76" width="56.6913" height="8.44584"/>
  <rect class="fil2" x="46" y="95" width="35.8934" height="8.44584"/>
  <rect class="fil2" x="46" y="28" width="71.7168" height="8.44584"/>
  <rect class="fil2" x="46" y="56" width="71.7168" height="8.44584"/>
  <rect class="fil0 str0" x="93" y="141" width="64.2943" height="18.5001" rx="3" ry="3"/>
  <polygon class="fil0 str0" points="125,120 133,130 142,141 125,141 108,141 117,130 "/>
  <circle class="fil0 str0" cx="125" cy="105" r="12"/>
 </g>
</svg>
