<?xml version="1.0" encoding="UTF-8"?>
<!DOCTYPE svg PUBLIC "-//W3C//DTD SVG 1.1//EN" "http://www.w3.org/Graphics/SVG/1.1/DTD/svg11.dtd">
<!-- Creator: CorelDRAW X7 -->
<svg xmlns="http://www.w3.org/2000/svg" xml:space="preserve" width="1.6932mm" height="1.6932mm" version="1.1" style="shape-rendering:geometricPrecision; text-rendering:geometricPrecision; image-rendering:optimizeQuality; fill-rule:evenodd; clip-rule:evenodd"
viewBox="0 0 169 169"
 xmlns:xlink="http://www.w3.org/1999/xlink">
 <defs>
  <style type="text/css">
   <![CDATA[
    .fil0 {fill:#4B91FF}
   ]]>
  </style>
   <clipPath id="id0">
    <rect x="-7293" y="-2572" width="3536" height="2576"/>
   </clipPath>
 </defs>
 <g id="图层_x0020_1">
  <metadata id="CorelCorpID_0Corel-Layer"/>
  <g style="clip-path:url(#id0)">
   <image x="-7293" y="-2572" width="3536" height="2576" xlink:href="首页1_Images\首页1_ImgID1.png"/>
  </g>
  <path class="fil0" d="M86 4l-73 69c-16,15 -10,24 4,24l11 0c0,16 0,31 0,46 -1,11 4,18 13,18l26 -1 1 -54 35 1 0 54 29 0c0,0 11,2 10,-13l0 -51c0,0 13,0 17,-1 4,-1 8,-9 -1,-18l-62 -65 -10 -9z"/>
 </g>
</svg>
