<?xml version="1.0" encoding="UTF-8"?>
<!DOCTYPE svg PUBLIC "-//W3C//DTD SVG 1.1//EN" "http://www.w3.org/Graphics/SVG/1.1/DTD/svg11.dtd">
<!-- Creator: CorelDRAW X7 -->
<svg xmlns="http://www.w3.org/2000/svg" xml:space="preserve" width="1.6932mm" height="1.6932mm" version="1.1" style="shape-rendering:geometricPrecision; text-rendering:geometricPrecision; image-rendering:optimizeQuality; fill-rule:evenodd; clip-rule:evenodd"
viewBox="0 0 169 169"
 xmlns:xlink="http://www.w3.org/1999/xlink"
 t="1566870893477"
 p-id="3712">
 <defs>
  <style type="text/css">
   <![CDATA[
    .fil1 {fill:#3B8CFF}
    .fil0 {fill:#BCD4F8}
   ]]>
  </style>
 </defs>
 <g id="图层_x0020_1">
  <metadata id="CorelCorpID_0Corel-Layer"/>
  <rect class="fil0" x="15" y="71" width="139.265" height="82.9289" rx="12" ry="18"/>
  <g id="_1314692671568">
   <path class="fil1" d="M149 148l0 -64 12 0 0 77 -153 0 0 -13 141 0zm-39 -140l51 0 0 51 -12 0 0 -30 -58 58 -25 -26 -41 40 -8 -8 49 -50 25 26 49 -49 -30 0 0 -12zm-70 95l13 0 0 32 -13 0 0 -32zm26 -12l12 0 0 44 -12 0 0 -44zm25 12l13 0 0 32 -13 0 0 -32zm26 -25l12 0 0 57 -12 0 0 -57z" p-id="3713"/>
  </g>
 </g>
</svg>
