<?xml version="1.0" encoding="UTF-8"?>
<!DOCTYPE svg PUBLIC "-//W3C//DTD SVG 1.1//EN" "http://www.w3.org/Graphics/SVG/1.1/DTD/svg11.dtd">
<!-- Creator: CorelDRAW X7 -->
<svg xmlns="http://www.w3.org/2000/svg" xml:space="preserve" width="200px" height="200px" version="1.1" style="shape-rendering:geometricPrecision; text-rendering:geometricPrecision; image-rendering:optimizeQuality; fill-rule:evenodd; clip-rule:evenodd"
viewBox="0 0 169 169"
 xmlns:xlink="http://www.w3.org/1999/xlink">
 <defs>
  <style type="text/css">
   <![CDATA[
    .str0 {stroke:#4B91FF;stroke-width:7.62}
    .fil1 {fill:none}
    .fil2 {fill:#4B91FF}
    .fil0 {fill:#BCD4F8}
   ]]>
  </style>
 </defs>
 <g id="图层_x0020_1">
  <metadata id="CorelCorpID_0Corel-Layer"/>
  <path class="fil0" d="M25 84l125 0c6,0 10,4 10,10l0 29c0,4 -3,8 -9,9 -11,0 -22,4 -18,16 1,4 -5,4 -5,4l-103 0c-5,0 -10,-4 -10,-10l0 -48c0,-6 5,-10 10,-10z"/>
  <path class="fil1 str0" d="M39 29l0 -8c0,-6 5,-11 11,-11l97 0c7,0 12,5 12,11l0 99c0,4 -2,8 -5,10 -2,1 -4,2 -7,2l-15 0"/>
  <g id="_1314739822080">
   <rect class="fil1 str0" x="12" y="32" width="120" height="122" rx="12" ry="12"/>
   <line class="fil1 str0" x1="12" y1="74" x2="132" y2= "74" />
   <rect class="fil2" x="27" y="48" width="52.6453" height="8.56758"/>
  </g>
 </g>
</svg>
