<?xml version="1.0" encoding="UTF-8"?>
<!DOCTYPE svg PUBLIC "-//W3C//DTD SVG 1.1//EN" "http://www.w3.org/Graphics/SVG/1.1/DTD/svg11.dtd">
<!-- Creator: CorelDRAW X7 -->
<svg xmlns="http://www.w3.org/2000/svg" xml:space="preserve" width="1.6932mm" height="1.6932mm" version="1.1" style="shape-rendering:geometricPrecision; text-rendering:geometricPrecision; image-rendering:optimizeQuality; fill-rule:evenodd; clip-rule:evenodd"
viewBox="0 0 169 169"
 xmlns:xlink="http://www.w3.org/1999/xlink"
 t="1566870820408"
 p-id="2733">
 <defs>
  <style type="text/css">
   <![CDATA[
    .fil1 {fill:#3B8CFF}
    .fil0 {fill:#BCD4F8}
   ]]>
  </style>
 </defs>
 <g id="图层_x0020_1">
  <metadata id="CorelCorpID_0Corel-Layer"/>
  <path class="fil0" d="M87 21c63,2 65,72 -2,72 -26,0 -54,-20 -47,-42 6,-16 24,-30 49,-30z"/>
  <g id="_1314739816256">
   <path class="fil1" d="M132 143l0 -70c0,-12 -4,-24 -13,-32 -9,-9 -20,-13 -32,-13 -12,0 -23,4 -31,13 -9,8 -14,20 -14,32l1 70 -12 0 0 -70c0,-8 1,-16 4,-23 3,-6 7,-13 12,-18 5,-5 12,-9 18,-12 7,-3 15,-4 22,-4 8,0 15,1 22,4 7,3 13,7 19,12 5,6 9,12 12,18 3,7 4,15 4,23l0 70 -12 0z" p-id="2734"/>
   <path class="fil1" d="M156 155l-136 0c-3,0 -6,-3 -6,-6 0,-3 3,-6 6,-6l136 0c4,0 6,3 6,6 0,3 -2,6 -6,6l0 0zm-50 -70l-15 0 0 -33 -22 41 16 0 0 32 21 -40 0 0z" p-id="2735"/>
  </g>
 </g>
</svg>
